<svg preserveAspectRatio="none" width="100%" height="100%" overflow="visible" style="display: block;" viewBox="0 0 30 30" fill="none" xmlns="http://www.w3.org/2000/svg">
<g id="Mask" clip-path="url(#clip0_0_134)">
<g id="image">
<path id="Vector" d="M15 18.6C13.0117 18.6 11.4 16.9883 11.4 15C11.4 13.0117 13.0117 11.4 15 11.4C16.9883 11.4 18.6 13.0117 18.6 15C18.5977 16.9875 16.9875 18.5977 15 18.6ZM15 13.2C14.0062 13.2 13.2 14.0062 13.2 15C13.2 15.9938 14.0062 16.8 15 16.8C15.9938 16.8 16.8 15.9938 16.8 15C16.7992 14.0062 15.9938 13.2008 15 13.2ZM5.1 18.6C3.11175 18.6 1.5 16.9883 1.5 15C1.5 13.0117 3.11175 11.4 5.1 11.4C7.08825 11.4 8.7 13.0117 8.7 15C8.69775 16.9875 7.0875 18.5977 5.1 18.6ZM5.1 13.2C4.10625 13.2 3.3 14.0062 3.3 15C3.3 15.9938 4.10625 16.8 5.1 16.8C6.09375 16.8 6.9 15.9938 6.9 15C6.89925 14.0062 6.09375 13.2008 5.1 13.2ZM9.6 28.5C7.61175 28.5 6 26.8883 6 24.9C6 22.9118 7.61175 21.3 9.6 21.3C11.5883 21.3 13.2 22.9118 13.2 24.9C13.1978 26.8875 11.5875 28.4977 9.6 28.5ZM9.6 23.1C8.60625 23.1 7.8 23.9063 7.8 24.9C7.8 25.8938 8.60625 26.7 9.6 26.7C10.5938 26.7 11.4 25.8938 11.4 24.9C11.3992 23.9063 10.5938 23.1007 9.6 23.1ZM20.4 28.5C18.4118 28.5 16.8 26.8883 16.8 24.9C16.8 22.9118 18.4118 21.3 20.4 21.3C22.3883 21.3 24 22.9118 24 24.9C23.9977 26.8875 22.3875 28.4977 20.4 28.5ZM20.4 23.1C19.4063 23.1 18.6 23.9063 18.6 24.9C18.6 25.8938 19.4063 26.7 20.4 26.7C21.3938 26.7 22.2 25.8938 22.2 24.9C22.1993 23.9063 21.3938 23.1007 20.4 23.1ZM24.9 18.6C22.9118 18.6 21.3 16.9883 21.3 15C21.3 13.0117 22.9118 11.4 24.9 11.4C26.8883 11.4 28.5 13.0117 28.5 15C28.4977 16.9875 26.8875 18.5977 24.9 18.6ZM24.9 13.2C23.9063 13.2 23.1 14.0062 23.1 15C23.1 15.9938 23.9063 16.8 24.9 16.8C25.8938 16.8 26.7 15.9938 26.7 15C26.6992 14.0062 25.8938 13.2008 24.9 13.2ZM20.4 8.7C18.4118 8.7 16.8 7.08825 16.8 5.1C16.8 3.11175 18.4118 1.5 20.4 1.5C22.3883 1.5 24 3.11175 24 5.1C23.9977 7.0875 22.3875 8.69775 20.4 8.7ZM20.4 3.3C19.4063 3.3 18.6 4.10625 18.6 5.1C18.6 6.09375 19.4063 6.9 20.4 6.9C21.3938 6.9 22.2 6.09375 22.2 5.1C22.1993 4.10625 21.3938 3.30075 20.4 3.3ZM9.6 8.7C7.61175 8.7 6 7.08825 6 5.1C6 3.11175 7.61175 1.5 9.6 1.5C11.5883 1.5 13.2 3.11175 13.2 5.1C13.1978 7.0875 11.5875 8.69775 9.6 8.7ZM9.6 3.3C8.60625 3.3 7.8 4.10625 7.8 5.1C7.8 6.09375 8.60625 6.9 9.6 6.9C10.5938 6.9 11.4 6.09375 11.4 5.1C11.3992 4.10625 10.5938 3.30075 9.6 3.3Z" fill="var(--fill-0, black)"/>
</g>
</g>
<defs>
<clipPath id="clip0_0_134">
<rect width="30" height="30" fill="white"/>
</clipPath>
</defs>
</svg>
