<svg preserveAspectRatio="none" width="100%" height="100%" overflow="visible" style="display: block;" viewBox="0 0 38 38" fill="none" xmlns="http://www.w3.org/2000/svg">
<g id="Mask" clip-path="url(#clip0_0_137)">
<g id="image">
<path id="Vector" d="M30.7296 11.9957C30.6128 11.7059 30.361 11.4931 30.057 11.4247C29.7521 11.3563 29.4339 11.4418 29.2049 11.6537L24.4188 16.0702L22.3725 15.6304L21.9336 13.5841L26.3501 8.7989C26.561 8.569 26.6465 8.25075 26.5781 7.94675C26.5107 7.64275 26.297 7.391 26.0082 7.27415C23.3719 6.2073 20.3785 6.52175 18.0215 8.1111C15.6636 9.70045 14.2509 12.3586 14.2519 15.2019C14.25 16.3837 14.4922 17.5541 14.9644 18.6381L7.81375 24.8207C7.79665 24.8349 7.77955 24.8511 7.7634 24.8672C6.27855 26.3511 6.27855 28.7575 7.7634 30.2414C9.2473 31.7253 11.6536 31.7253 13.1375 30.2414C13.1527 30.2262 13.1698 30.2081 13.1841 30.192L19.3648 23.0394C22.0105 24.2003 25.0629 23.9476 27.4806 22.3668C29.8984 20.7851 31.3548 18.0909 31.3519 15.2019C31.3538 14.1028 31.1419 13.0141 30.7296 11.9957ZM22.8019 21.8519C21.6771 21.85 20.5713 21.5641 19.5871 21.0207C19.1938 20.8031 18.7027 20.8915 18.4091 21.2306L11.7705 28.919C11.0238 29.6286 9.8477 29.6134 9.11905 28.8848C8.3904 28.1561 8.3752 26.9791 9.08485 26.2324L16.7666 19.5957C17.1067 19.3021 17.195 18.81 16.9765 18.4167C15.7415 16.1814 15.8945 13.4359 17.3717 11.3525C18.849 9.26915 21.3893 8.2156 23.9068 8.64215L20.2018 12.6569C19.9928 12.8839 19.9072 13.1984 19.9718 13.5005L20.6435 16.6269C20.7223 16.9917 21.0073 17.2777 21.3731 17.3556L24.5024 18.0282C24.8035 18.0928 25.118 18.0073 25.3451 17.7973L29.3598 14.0923C29.6837 16.0227 29.1422 17.9978 27.8787 19.4921C26.6162 20.9865 24.7589 21.85 22.8019 21.8519Z" fill="var(--fill-0, black)"/>
</g>
</g>
<defs>
<clipPath id="clip0_0_137">
<rect width="38" height="38" fill="white"/>
</clipPath>
</defs>
</svg>
