<svg preserveAspectRatio="none" width="100%" height="100%" overflow="visible" style="display: block;" viewBox="0 0 38 38" fill="none" xmlns="http://www.w3.org/2000/svg">
<g id="Mask" clip-path="url(#clip0_0_5)">
<g id="image">
<path id="Vector" d="M27.7629 19.0001C30.934 14.5474 32.5518 9.94563 30.3032 7.69698C28.0536 5.44833 23.4527 7.06523 19.0001 10.2363C14.5474 7.06523 9.94563 5.44833 7.69698 7.69698C5.44833 9.94563 7.06523 14.5474 10.2363 19.0001C7.06523 23.4527 5.44833 28.0536 7.69698 30.3032C8.42088 31.0271 9.38893 31.3501 10.5156 31.3501C12.8935 31.3501 15.981 29.9127 19.0067 27.7629C22.0192 29.9127 25.1067 31.3501 27.4902 31.3501C28.6179 31.3501 29.5859 31.0261 30.3089 30.3032C32.5518 28.0536 30.934 23.4527 27.7629 19.0001ZM28.8478 9.15238C29.831 10.1347 29.167 13.32 26.4652 17.2929C25.6102 16.2346 24.701 15.2229 23.7396 14.2605C22.7773 13.3001 21.7646 12.3919 20.7072 11.5388C24.6792 8.83698 27.8645 8.16818 28.8478 9.15238ZM25.2121 19.0001C24.302 20.1515 23.3245 21.2478 22.2842 22.2842C21.2478 23.3245 20.1515 24.302 19.0001 25.2121C17.8487 24.302 16.7514 23.3245 15.7159 22.2842C14.6757 21.2478 13.6981 20.1515 12.788 19.0001C14.6139 16.6982 16.6982 14.6139 19.0001 12.788C20.1515 13.6981 21.2478 14.6757 22.2842 15.7159C23.3245 16.7514 24.302 17.8487 25.2121 19.0001ZM9.15238 9.15238C9.43548 8.86738 9.90193 8.72108 10.5185 8.72108C12.0385 8.72108 14.4667 9.60838 17.291 11.5388C16.2346 12.3928 15.2229 13.301 14.2605 14.2605C13.3001 15.2229 12.3919 16.2346 11.5388 17.2929C8.83698 13.32 8.16913 10.1347 9.15238 9.15238ZM9.15238 28.8478C8.16913 27.8645 8.83698 24.6792 11.5388 20.7072C12.3928 21.7646 13.3029 22.7773 14.2643 23.7396C15.2257 24.6982 16.2365 25.6073 17.2929 26.4614C13.32 29.1632 10.1347 29.832 9.15238 28.8478ZM28.8478 28.8478C27.8645 29.832 24.6792 29.167 20.7072 26.4652C21.7646 25.6102 22.7763 24.7001 23.7396 23.7396C24.6991 22.7773 25.6083 21.7646 26.4614 20.7072C29.1632 24.6792 29.831 27.8645 28.8478 28.8478ZM20.5438 19.0001C20.5438 19.8522 19.8522 20.5438 19.0001 20.5438C18.147 20.5438 17.4563 19.8522 17.4563 19.0001C17.4563 18.147 18.147 17.4563 19.0001 17.4563C19.8522 17.4563 20.5438 18.147 20.5438 19.0001Z" fill="var(--fill-0, black)"/>
</g>
</g>
<defs>
<clipPath id="clip0_0_5">
<rect width="38" height="38" fill="white"/>
</clipPath>
</defs>
</svg>
