<svg preserveAspectRatio="none" width="100%" height="100%" overflow="visible" style="display: block;" viewBox="0 0 38 38" fill="none" xmlns="http://www.w3.org/2000/svg">
<g id="Mask" clip-path="url(#clip0_0_131)">
<g id="image">
<path id="Vector" d="M19 6.65C12.179 6.65 6.65 12.179 6.65 19C6.65 25.821 12.179 31.35 19 31.35C25.821 31.35 31.35 25.821 31.35 19C31.3424 12.1819 25.8182 6.6576 19 6.65ZM29.45 19C29.451 20.3405 29.1926 21.6686 28.69 22.9112L23.3814 19.647C23.1563 19.5083 22.9036 19.418 22.6404 19.3819L19.931 19.0162C19.1672 18.9174 18.4186 19.285 18.031 19.95H16.9955L16.5443 19.0162C16.2916 18.4899 15.809 18.1099 15.238 17.9873L14.288 17.7812L15.2162 16.15H17.2007C17.5218 16.1491 17.8382 16.0674 18.1184 15.9125L19.5738 15.1098C19.7011 15.0385 19.8208 14.953 19.9301 14.8552L23.1249 11.9653C23.7852 11.3734 23.9467 10.4035 23.5125 9.63015L23.4698 9.5532C27.1197 11.2841 29.4472 14.9606 29.45 19ZM20.8183 8.7096L21.85 10.5574L18.6542 13.4473L17.2007 14.25H15.2171C14.5369 14.2491 13.908 14.611 13.5689 15.2L12.5315 17.0088L11.3269 13.7978L12.6255 10.7255C14.9511 8.92905 17.9256 8.19565 20.8193 8.70675L20.8183 8.7096ZM8.55 19C8.5481 17.4468 8.89485 15.9125 9.5646 14.5113L10.9108 18.1061C11.1388 18.7103 11.6584 19.1577 12.2911 19.2936L14.8352 19.8408L15.2884 20.7813C15.6085 21.4339 16.2707 21.8481 16.9984 21.85H17.1741L16.3153 23.7776C16.0056 24.4711 16.1396 25.2824 16.6545 25.84L16.6716 25.8562L19 28.2549L18.7701 29.4424C13.0939 29.3104 8.5595 24.6772 8.55 19ZM20.7309 29.3047L20.8658 28.615C20.977 28.0212 20.8012 27.4085 20.3908 26.9648C20.3851 26.9591 20.3794 26.9534 20.3737 26.9477L18.05 24.5509L19.6774 20.9L22.3868 21.2658L27.816 24.605C26.2257 27.1035 23.6512 28.8107 20.7309 29.3047Z" fill="var(--fill-0, black)"/>
</g>
</g>
<defs>
<clipPath id="clip0_0_131">
<rect width="38" height="38" fill="white"/>
</clipPath>
</defs>
</svg>
