<svg preserveAspectRatio="none" width="100%" height="100%" overflow="visible" style="display: block;" viewBox="0 0 38 38" fill="none" xmlns="http://www.w3.org/2000/svg">
<g id="Mask" clip-path="url(#clip0_0_209)">
<g id="image">
<path id="Vector" d="M32.5109 13.8111L19.2784 6.75355C19.019 6.6158 18.7083 6.6158 18.449 6.75355L5.2174 13.8111C4.92955 13.9641 4.75 14.2633 4.75 14.5892C4.75 14.915 4.92955 15.2142 5.2174 15.3672L8.2783 17.0003V22.3402C8.27735 22.7734 8.43695 23.1914 8.72575 23.5144C10.1707 25.1228 13.4064 27.8217 18.8642 27.8217C20.6739 27.8359 22.4694 27.5082 24.1566 26.8555V30.4674C24.1566 30.9548 24.5518 31.35 25.0392 31.35C25.5265 31.35 25.9207 30.9548 25.9207 30.4674V26.0034C27.0712 25.3393 28.1105 24.4996 29.0016 23.5144C29.2913 23.1914 29.4509 22.7734 29.45 22.3402V17.0003L32.5109 15.3672C32.7987 15.2142 32.9783 14.915 32.9783 14.5892C32.9783 14.2633 32.7987 13.9641 32.5109 13.8111ZM18.8642 26.0566C14.0923 26.0566 11.286 23.7263 10.0425 22.3402V17.9417L18.449 22.4247C18.7083 22.5625 19.019 22.5625 19.2784 22.4247L24.1566 19.8236V24.9337C22.7677 25.5816 21.0169 26.0566 18.8642 26.0566ZM27.6858 22.3354C27.1567 22.9225 26.5648 23.4489 25.9207 23.9068V18.8822L27.6858 17.9417V22.3354ZM25.4799 17.119L25.4562 17.1048L19.2812 13.8111C18.8518 13.5917 18.3274 13.757 18.1013 14.1816C17.8742 14.6063 18.031 15.1344 18.4519 15.3672L23.6056 18.1175L18.8642 20.6463L7.50595 14.5892L18.8642 8.53195L30.2214 14.5892L25.4799 17.119Z" fill="var(--fill-0, black)"/>
</g>
</g>
<defs>
<clipPath id="clip0_0_209">
<rect width="38" height="38" fill="white"/>
</clipPath>
</defs>
</svg>
