<svg width="359" height="54" viewBox="0 0 359 54" fill="none" xmlns="http://www.w3.org/2000/svg">
<g clip-path="url(#clip0_10_3257)">
<path d="M10.5849 50.3149C10.4027 50.4539 10.2097 50.5747 10.0021 50.6735C9.79446 50.776 9.56499 50.8528 9.3173 50.904C9.06961 50.9553 8.79643 50.9809 8.49775 50.9809C8.02787 50.9809 7.59442 50.8931 7.19375 50.7211C6.79672 50.5491 6.45069 50.3149 6.16294 50.0148C5.87154 49.7184 5.64571 49.3634 5.47816 48.9608C5.31425 48.5546 5.23047 48.1191 5.23047 47.6507C5.23047 47.1823 5.3106 46.7578 5.47451 46.3516C5.63478 45.9454 5.86426 45.5904 6.15929 45.2867C6.45433 44.9829 6.80037 44.7414 7.20468 44.5694C7.60899 44.3937 8.05337 44.3059 8.5451 44.3059C8.84014 44.3059 9.10604 44.3315 9.34644 44.3791C9.58684 44.4267 9.80903 44.4962 10.013 44.5877C10.2133 44.6755 10.4028 44.7816 10.5739 44.9061C10.7451 45.0305 10.9054 45.1659 11.0584 45.3123L10.3335 46.1503C10.0749 45.9124 9.80539 45.7185 9.51763 45.5684C9.22988 45.4221 8.90206 45.3489 8.53782 45.3489C8.23185 45.3489 7.94774 45.4074 7.68912 45.5282C7.43051 45.649 7.20468 45.81 7.01527 46.0149C6.82586 46.2198 6.68016 46.4614 6.57453 46.7395C6.4689 47.0176 6.41791 47.314 6.41791 47.6324C6.41791 47.9508 6.4689 48.2509 6.57453 48.5327C6.68016 48.8108 6.82586 49.056 7.01527 49.2646C7.20468 49.4732 7.43051 49.6378 7.68912 49.7586C7.94774 49.8794 8.23185 49.9379 8.53782 49.9379C8.92756 49.9379 9.2663 49.8611 9.54677 49.711C9.82724 49.561 10.1077 49.3561 10.3809 49.0999L11.1057 49.8355C10.9418 50.0148 10.767 50.1721 10.5885 50.3112L10.5849 50.3149Z" fill="white"/>
<path d="M16.4057 50.8711L14.8213 48.6241H13.4044V50.8711H12.2861V44.4193H15.1491C15.517 44.4193 15.8485 44.4669 16.1435 44.5621C16.4385 44.6572 16.6899 44.7926 16.8975 44.9683C17.1015 45.1439 17.2581 45.3598 17.371 45.6123C17.4803 45.8685 17.5349 46.1503 17.5349 46.465C17.5349 46.7358 17.4948 46.9774 17.422 47.1896C17.3455 47.4019 17.2399 47.5885 17.1051 47.7532C16.9703 47.9179 16.8101 48.0533 16.6243 48.1667C16.4385 48.2801 16.2309 48.368 16.0051 48.4302L17.7389 50.8711H16.4094H16.4057ZM16.0379 45.7148C15.8047 45.5318 15.4769 45.4404 15.0544 45.4404H13.408V47.6141H15.0653C15.4696 47.6141 15.7938 47.5153 16.0306 47.3177C16.271 47.1201 16.3912 46.8566 16.3912 46.5199C16.3912 46.1613 16.2746 45.8905 16.0415 45.7112L16.0379 45.7148Z" fill="white"/>
<path d="M23.6687 45.444H20.0372V47.1018H23.2571V48.1264H20.0372V49.8501H23.7161V50.8748H18.9189V44.423H23.6723V45.4477L23.6687 45.444Z" fill="white"/>
<path d="M31.2124 50.8711H30.0213L29.3693 49.3121H26.3315L25.6722 50.8711H24.5176L27.3441 44.3754H28.3895L31.216 50.8711H31.2124ZM27.8431 45.7295L26.7431 48.3094H28.9541L27.8431 45.7295Z" fill="white"/>
<path d="M34.2028 50.8711H33.0664V45.4696H31.0303V44.4193H36.239V45.4696H34.2028V50.8711Z" fill="white"/>
<path d="M38.6138 44.4193V50.8711H37.4956V44.4193H38.6138Z" fill="white"/>
<path d="M44.897 44.4193H46.1172L43.4473 50.915H42.4565L39.7866 44.4193H41.0323L42.9665 49.378L44.8933 44.4193H44.897Z" fill="white"/>
<path d="M51.9705 45.444H48.3389V47.1018H51.5589V48.1264H48.3389V49.8501H52.0178V50.8748H47.2207V44.423H51.9741V45.4477L51.9705 45.444Z" fill="white"/>
<path d="M20.1973 28.6797H5.96263C5.93349 30.7913 6.10469 32.8077 7.50339 34.4654C8.67626 35.856 10.2753 36.1122 11.98 35.9292C14.4459 35.6658 15.79 34.1617 16.3764 31.8452C16.4201 31.6695 16.4602 31.4939 16.5112 31.2853H20.2192C19.9897 32.1855 19.8294 33.0565 19.5417 33.8836C18.5983 36.5514 16.6969 38.1908 13.9797 38.8715C11.572 39.4717 9.14978 39.4424 6.76397 38.7837C3.72252 37.9456 1.67182 35.9951 0.750282 32.965C-0.273247 29.5946 -0.335169 26.2059 1.11453 22.9343C2.65164 19.465 5.37255 17.5328 9.13885 17.1229C12.0018 16.8119 14.6171 17.4193 16.8099 19.3772C18.7076 21.0679 19.7311 23.249 20.1281 25.7338C20.2811 26.6853 20.4122 27.6441 20.1973 28.6834V28.6797ZM14.2966 25.7484C14.3658 24.6798 14.2456 23.6698 13.8959 22.6964C13.3277 21.1045 12.224 20.1933 10.5121 20.1201C8.83288 20.0469 7.59081 20.7678 6.80768 22.2646C6.34145 23.1538 6.11926 24.1163 6.02455 25.1153C5.95899 25.785 5.94442 25.785 6.62556 25.785C8.96765 25.785 11.3097 25.785 13.6555 25.785C13.8631 25.785 14.0671 25.7631 14.3002 25.7484H14.2966Z" fill="white"/>
<path d="M55.4707 35.7426C55.9952 36.5367 56.7929 36.9686 57.6853 37.3126C57.332 37.9383 56.8548 38.3994 56.272 38.7105C54.367 39.7169 52.3892 39.7901 50.4004 39.0033C49.2967 38.5641 48.6374 37.6822 48.346 36.5258C48.3242 36.4379 48.3023 36.3501 48.2732 36.2659C48.2659 36.2403 48.2368 36.2184 48.1494 36.1086C48.0947 36.2037 48.0547 36.2989 47.9964 36.3757C46.6523 38.1762 44.7837 39.0435 42.6274 39.3546C41.134 39.5705 39.6369 39.5961 38.1581 39.1899C35.9726 38.5897 34.5594 36.9686 34.257 34.7143C34.0203 32.9321 34.2133 31.2487 35.4226 29.8178C36.3296 28.7456 37.5425 28.1308 38.8502 27.7392C40.4419 27.2635 42.0665 26.8866 43.6728 26.4511C44.8202 26.14 45.953 25.785 46.9036 25.0202C48.5865 23.6625 48.561 20.83 46.8454 19.6261C46.004 19.0369 45.0278 18.8319 44.0297 18.8136C43.1811 18.799 42.3287 18.9161 41.4764 18.9564C41.3489 18.9637 41.1777 18.9124 41.0976 18.821C40.5803 18.2464 40.0777 17.6536 39.5386 17.0278C40.0158 16.9107 40.5621 16.7423 41.1231 16.6399C43.5854 16.1824 46.0513 16.1385 48.4881 16.7789C50.2729 17.2437 51.7991 18.122 52.7571 19.7871C53.2524 20.6544 53.5256 21.5949 53.5293 22.5866C53.5475 26.495 53.5438 30.4034 53.5475 34.3117C53.5475 34.5057 53.5475 34.707 53.5839 34.8973C53.7879 36.0427 54.4654 36.3538 55.4743 35.739L55.4707 35.7426ZM48.0146 27.3367C47.9672 27.3513 47.8944 27.3623 47.8325 27.3916C46.0404 28.2076 44.2447 29.0127 42.4635 29.8471C40.8499 30.601 40.187 31.8965 40.3509 33.664C40.4711 34.9412 41.1267 35.728 42.3651 35.9878C44.4413 36.4269 46.5795 35.2742 47.5156 33.2139C48.3715 31.3365 48.1202 29.3494 48.0765 27.3843C48.0765 27.3733 48.0547 27.366 48.0146 27.3367Z" fill="white"/>
<path d="M29.063 20.6471C29.2415 20.4019 29.3362 20.2775 29.4309 20.1457C30.2468 18.9856 31.0809 17.8439 32.2902 17.0424C34.6323 15.4871 39.4877 16.3508 40.3728 19.9847C40.7189 21.4046 40.6278 22.7769 39.7536 24.0029C38.537 25.7082 35.6449 25.7594 34.3482 24.1163C33.0369 22.4512 34.0022 20.0249 36.1185 19.6627C36.3261 19.6261 36.53 19.5858 36.8142 19.5346C36.3916 19.0588 35.8817 18.9344 35.3463 18.8905C32.3339 18.6563 30.4945 20.6397 29.6312 22.9562C29.2488 23.9809 29.0667 25.0422 29.0667 26.14C29.074 28.7053 29.0667 31.2707 29.0667 33.836C29.0667 35.2339 29.613 35.7792 31.0045 35.7829C31.9333 35.7829 32.8621 35.7829 33.8201 35.7829V38.7873C33.6634 38.7947 33.5177 38.8093 33.3757 38.8093C28.8335 38.8093 24.2914 38.802 19.7493 38.8203C19.3122 38.8203 19.2138 38.6739 19.2284 38.2787C19.2539 37.6017 19.2466 36.921 19.2284 36.2403C19.2211 35.9 19.3122 35.7573 19.6837 35.7719C20.4049 35.8012 21.1261 35.7865 21.851 35.7792C23.0639 35.7646 23.6103 35.2047 23.6103 33.9897C23.6103 29.9313 23.6103 25.8692 23.6103 21.8108C23.6103 20.6507 23.1768 20.1457 22.0258 20.0579C21.2463 19.9993 20.4632 20.014 19.6837 20.0176C19.3595 20.0176 19.2211 19.9152 19.232 19.5748C19.2503 18.8649 19.2466 18.1549 19.232 17.4486C19.2284 17.1559 19.3013 17.0168 19.6364 17.0168C22.6305 17.0278 25.6245 17.0278 28.615 17.0168C28.9465 17.0168 29.0193 17.1559 29.0157 17.4486C29.0047 18.3086 29.012 19.1686 29.0157 20.0286C29.0157 20.186 29.0412 20.3433 29.063 20.6397V20.6471Z" fill="white"/>
<path d="M74.6555 9.70872C69.0679 9.78923 64.3619 11.7178 60.3734 15.4395C59.9472 15.8348 59.4337 15.9372 58.9674 15.7177C58.5158 15.5091 58.2025 15.037 58.2972 14.5503C58.3518 14.2612 58.5194 13.9501 58.7307 13.7452C61.6082 10.9713 64.9847 9.0866 68.8457 8.06925C71.0239 7.49471 73.2458 7.2422 75.4932 7.35564C84.7013 7.81674 93.0644 13.5146 96.2188 22.8098C97.1367 25.5215 97.5301 28.3211 97.3916 31.1755C96.8671 42.0882 89.3527 50.3441 79.6383 52.6496C79.3469 52.7192 79.0519 52.7814 78.7569 52.8363C78.327 52.9131 77.9337 52.818 77.6605 52.4703C77.3472 52.0751 77.187 51.581 77.3837 51.1163C77.4893 50.8674 77.8426 50.6186 78.1231 50.56C80.6509 50.0514 83.044 49.1914 85.2259 47.8117C90.3216 44.5913 93.5088 40.0243 94.6635 34.0775C96.4155 25.0714 91.8405 16.4423 84.5702 12.3546C82.0496 10.9347 79.3506 10.0783 76.4658 9.82583C75.821 9.77093 75.1763 9.74166 74.6591 9.70872H74.6555Z" fill="white"/>
<path d="M74.6886 4.02913C73.4174 4.14989 72.179 4.2487 70.9406 4.38776C70.0045 4.49389 69.2578 4.1133 69.021 3.34846C68.7478 2.46651 69.2942 1.60652 70.2521 1.46746C79.3364 0.175644 87.3061 2.62387 94.0738 8.81213C98.6414 12.9913 101.486 18.2098 102.699 24.2956C103.267 27.15 103.34 30.0374 103.02 32.9357C102.495 37.7224 100.841 42.0772 98.1205 46.0332C97.5487 46.8602 96.9841 47.0835 96.3175 46.7431C95.651 46.4065 95.2867 45.4477 95.5453 44.6682C95.6109 44.4706 95.7092 44.2766 95.8258 44.1046C97.993 40.8989 99.4245 37.3857 99.949 33.5542C101.064 25.4118 98.8235 18.272 93.2979 12.2192C89.375 7.92653 84.4613 5.38681 78.75 4.42436C77.4096 4.19747 76.0364 4.14989 74.6923 4.02181L74.6886 4.02913Z" fill="white"/>
<path d="M66.5037 27.699C66.2597 27.8673 66.1249 27.9515 66.0011 28.0466C63.1527 30.2314 58.9966 29.5434 56.782 27.6587C54.0684 25.3532 54.378 20.9142 57.3867 18.7478C58.7453 17.767 60.2824 17.3206 61.9361 17.2217C63.6444 17.1193 65.2981 17.3388 66.817 18.1842C68.9988 19.3992 70.2627 21.3058 70.7144 23.7211C71.3482 27.1354 70.8601 30.4034 68.9624 33.3456C67.2286 36.0354 64.6752 37.1479 61.5099 36.8405C59.8526 36.6795 58.2973 36.2184 57.0042 35.1022C55.9042 34.1507 55.6274 32.643 56.2976 31.461C57.2373 29.8105 59.4446 30.2094 60.2168 31.1389C60.9599 32.0355 60.6576 33.4042 59.6122 33.9458C59.4738 34.019 59.3572 34.1288 59.2297 34.2203C59.3645 34.3227 59.4811 34.4618 59.6304 34.524C60.5702 34.9082 61.5245 35.1534 62.5662 34.9888C63.8302 34.7875 64.7699 34.1434 65.3891 33.0419C66.2925 31.4244 66.409 29.6385 66.5074 27.699H66.5037ZM66.4054 22.9709C66.3434 22.6342 66.2961 22.1365 66.1613 21.6644C65.7315 20.1786 64.555 19.3187 62.9778 19.293C61.4261 19.2711 60.1804 20.1201 59.7761 21.6168C59.594 22.2975 59.5394 23.0441 59.5903 23.7503C59.8162 26.7914 62.6755 27.5672 64.5951 26.5828C65.9938 25.8655 66.3107 24.5518 66.4054 22.9672V22.9709Z" fill="white"/>
<path d="M74.5353 21.6681C74.8304 21.6461 75.038 21.6388 75.242 21.6095C76.4877 21.4265 77.5659 22.1035 77.799 23.2197C78.0539 24.431 77.402 25.5472 76.2254 25.9168C74.2804 26.5316 72.6449 25.4593 72.43 23.4393C72.2042 21.3021 73.0492 19.6773 74.8012 18.5172C77.3364 16.8338 82.2282 16.6289 85.0292 18.6855C87.5899 20.5665 87.9614 23.3917 86.8213 25.8289C86.2422 27.0695 85.1895 27.8636 83.9438 28.3028C82.3484 28.8627 80.6911 29.2506 79.0848 29.7776C78.094 30.1033 77.1069 30.4875 76.1817 30.9669C75.3221 31.4134 74.7502 32.1782 74.4588 33.2029C74.5718 33.1773 74.6337 33.1846 74.6701 33.1553C75.7046 32.3319 76.8738 32.3392 78.0977 32.5478C79.8861 32.8479 81.6782 33.1224 83.4739 33.3712C84.8216 33.5615 85.6266 33.0053 85.9726 31.6769C86.0892 31.2267 86.1402 30.762 86.1912 30.2972C86.224 30.0081 86.3187 29.8691 86.6356 29.8874C87.0362 29.913 87.4405 29.8947 87.9323 29.8947C87.8959 30.6119 87.9286 31.2926 87.8121 31.9477C87.6591 32.8296 87.4988 33.7408 87.1491 34.5533C86.4389 36.2037 85.0147 36.8331 83.3027 36.9063C81.6928 36.9759 80.2467 36.4013 78.8079 35.7682C77.8245 35.3364 76.8155 34.9265 75.7811 34.6411C74.7065 34.3447 74.029 34.846 73.7522 35.9402C73.6357 36.4038 73.3418 36.6355 72.8707 36.6355C72.6012 36.6355 72.3353 36.6355 72.0366 36.6355C71.8436 34.1031 72.2697 31.8306 74.2913 30.1069C75.497 29.0786 76.9102 28.4126 78.3162 27.7209C79.4599 27.1573 80.6292 26.6304 81.5944 25.7594C82.7673 24.6981 83.0915 23.3807 82.7017 21.8949C82.3083 20.4055 81.2083 19.648 79.7695 19.3552C78.6732 19.132 77.5841 19.2015 76.5387 19.6224C75.6208 19.9956 74.9615 20.6361 74.539 21.6644L74.5353 21.6681Z" fill="white"/>
<path d="M74.2624 48.9096C67.5093 48.6534 62.2861 45.982 58.4615 40.6317C57.9333 39.8925 58.0863 39.501 58.4542 39.2082C58.9277 38.8313 59.7254 38.9959 60.1188 39.5558C61.3827 41.3527 62.9016 42.8824 64.7411 44.079C67.258 45.7185 70.0081 46.6553 73.0167 46.8456C81.3579 47.3726 88.8869 41.7735 90.7627 33.4847C90.9339 32.7345 91.4839 32.3868 92.1032 32.6137C92.5876 32.793 92.8098 33.2432 92.6787 33.836C91.9356 37.243 90.3912 40.2329 88.009 42.7762C85.0951 45.8905 81.5182 47.8081 77.3403 48.5693C76.2512 48.7669 75.1366 48.8181 74.2588 48.9096H74.2624Z" fill="white"/>
<path d="M184.538 30.0301H170.43C170.401 32.1233 170.569 34.1215 171.957 35.7646C173.119 37.1442 174.703 37.3967 176.393 37.2138C178.837 36.9503 180.17 35.4608 180.75 33.1663C180.793 32.9943 180.833 32.8187 180.881 32.6101H184.556C184.326 33.503 184.17 34.3666 183.882 35.1827C182.95 37.8249 181.063 39.4534 178.371 40.1267C175.985 40.7232 173.585 40.6903 171.221 40.0389C168.209 39.2082 166.172 37.276 165.262 34.2715C164.246 30.9303 164.184 27.5746 165.622 24.3322C167.145 20.8959 169.844 18.9783 173.578 18.5721C176.415 18.2611 179.005 18.8685 181.179 20.8044C183.059 22.4805 184.071 24.6433 184.468 27.1061C184.621 28.0466 184.749 28.9981 184.538 30.0301ZM178.695 27.1244C178.764 26.0632 178.644 25.0678 178.298 24.1017C177.734 22.5244 176.641 21.6205 174.943 21.5473C173.279 21.4741 172.048 22.1877 171.272 23.6735C170.809 24.5554 170.591 25.5106 170.496 26.4987C170.434 27.1647 170.416 27.1647 171.09 27.1647C173.41 27.1647 175.734 27.1647 178.054 27.1647C178.258 27.1647 178.462 27.1427 178.692 27.1281L178.695 27.1244Z" fill="white"/>
<path d="M219.498 37.0308C220.019 37.8176 220.809 38.2457 221.691 38.5861C221.341 39.2082 220.868 39.6656 220.288 39.9694C218.402 40.9648 216.438 41.038 214.471 40.2585C213.379 39.8267 212.723 38.9484 212.435 37.8029C212.413 37.7151 212.392 37.6309 212.362 37.5468C212.355 37.5211 212.326 37.4992 212.239 37.3894C212.184 37.4846 212.144 37.576 212.086 37.6566C210.756 39.4424 208.902 40.2987 206.764 40.6098C205.285 40.8257 203.799 40.8477 202.335 40.4451C200.167 39.8486 198.769 38.2421 198.47 36.0098C198.233 34.2422 198.426 32.5735 199.625 31.1572C200.524 30.096 201.723 29.4848 203.02 29.0969C204.6 28.6248 206.207 28.2516 207.798 27.8197C208.935 27.5087 210.06 27.1574 211 26.3998C212.668 25.0531 212.643 22.2463 210.942 21.0533C210.108 20.4677 209.139 20.2665 208.152 20.2482C207.31 20.2335 206.465 20.3506 205.62 20.3909C205.496 20.3982 205.325 20.347 205.245 20.2592C204.731 19.6883 204.236 19.1027 203.701 18.4806C204.174 18.3635 204.717 18.1988 205.271 18.0964C207.711 17.6426 210.155 17.5987 212.574 18.2318C214.34 18.6929 215.856 19.5638 216.803 21.2143C217.294 22.0743 217.564 23.0038 217.567 23.9882C217.586 27.86 217.582 31.7354 217.586 35.6072C217.586 35.8012 217.586 35.9988 217.622 36.1854C217.826 37.3235 218.496 37.6309 219.498 37.0198V37.0308ZM212.111 28.698C212.064 28.7127 211.991 28.7236 211.929 28.7529C210.155 29.5617 208.374 30.3595 206.607 31.1865C205.008 31.933 204.349 33.2175 204.513 34.9705C204.633 36.2367 205.281 37.0161 206.509 37.276C208.567 37.7114 210.683 36.5697 211.616 34.5277C212.464 32.665 212.217 30.6961 212.173 28.7493C212.173 28.7383 212.151 28.731 212.115 28.7017L212.111 28.698Z" fill="white"/>
<path d="M193.33 22.0706C193.509 21.8291 193.603 21.7047 193.695 21.5729C194.503 20.4238 195.33 19.293 196.528 18.4989C198.849 16.9582 203.66 17.8146 204.538 21.4155C204.88 22.8208 204.789 24.1822 203.923 25.3971C202.717 27.0878 199.85 27.139 198.568 25.5069C197.268 23.8565 198.226 21.4521 200.32 21.0899C200.524 21.0533 200.728 21.0167 201.009 20.9618C200.59 20.4897 200.083 20.3653 199.552 20.325C196.565 20.0945 194.744 22.0596 193.888 24.3542C193.509 25.3678 193.327 26.4218 193.33 27.5123C193.338 30.0557 193.33 32.5991 193.33 35.1424C193.33 36.5294 193.873 37.071 195.253 37.071C196.175 37.071 197.097 37.071 198.044 37.071V40.0462C197.891 40.0535 197.745 40.0682 197.603 40.0682C193.101 40.0682 188.599 40.0608 184.097 40.0791C183.663 40.0791 183.569 39.9364 183.579 39.5449C183.605 38.8715 183.598 38.1981 183.579 37.5248C183.572 37.1881 183.663 37.0454 184.031 37.06C184.745 37.0893 185.463 37.0747 186.177 37.0674C187.379 37.0527 187.921 36.4965 187.921 35.2961C187.921 31.2707 187.921 27.2488 187.921 23.2234C187.921 22.0743 187.491 21.5729 186.351 21.4851C185.579 21.4265 184.803 21.4412 184.027 21.4448C183.707 21.4448 183.569 21.346 183.579 21.0057C183.598 20.3031 183.594 19.6004 183.579 18.8978C183.576 18.605 183.649 18.4696 183.98 18.4696C186.945 18.4806 189.914 18.4806 192.879 18.4696C193.206 18.4696 193.279 18.6087 193.276 18.8978C193.265 19.7505 193.272 20.6031 193.276 21.4558C193.276 21.6132 193.301 21.7669 193.323 22.0633L193.33 22.0706Z" fill="white"/>
<path d="M238.515 11.2311C232.978 11.3116 228.312 13.2219 224.36 16.9107C223.938 17.3022 223.428 17.401 222.965 17.1851C222.517 16.9765 222.204 16.5118 222.299 16.0287C222.353 15.7433 222.521 15.4322 222.728 15.2309C225.581 12.4826 228.928 10.6126 232.753 9.60625C234.912 9.03903 237.116 8.78652 239.342 8.8963C248.466 9.35009 256.756 15.0004 259.881 24.2151C260.792 26.9012 261.182 29.6751 261.047 32.5039C260.526 43.3178 253.077 51.5005 243.45 53.7877C243.163 53.8573 242.871 53.9195 242.576 53.9707C242.15 54.0476 241.76 53.9524 241.487 53.6084C241.174 53.2169 241.017 52.7265 241.214 52.269C241.32 52.0202 241.669 51.775 241.946 51.7201C244.452 51.2151 246.823 50.3624 248.987 48.9938C254.039 45.8027 257.193 41.2758 258.341 35.3803C260.078 26.4547 255.543 17.9024 248.335 13.8513C245.836 12.446 243.159 11.597 240.303 11.3445C239.666 11.2896 239.025 11.2604 238.515 11.2274V11.2311Z" fill="white"/>
<path d="M238.548 5.59908C237.288 5.71984 236.06 5.81499 234.833 5.95771C233.904 6.06384 233.164 5.68691 232.928 4.92573C232.654 4.0511 233.197 3.19843 234.148 3.06303C243.152 1.78219 251.049 4.20846 257.758 10.3455C262.286 14.4881 265.105 19.659 266.307 25.6899C266.872 28.5187 266.941 31.3805 266.628 34.2532C266.11 38.9959 264.468 43.3142 261.772 47.2335C261.208 48.0533 260.647 48.2728 259.987 47.9398C259.328 47.6031 258.967 46.6553 259.222 45.8832C259.288 45.6892 259.383 45.4953 259.499 45.3269C261.648 42.1505 263.065 38.6702 263.586 34.8717C264.69 26.8024 262.472 19.7249 256.993 13.7269C253.107 9.47086 248.233 6.95676 242.573 6.00163C241.243 5.7784 239.881 5.73082 238.552 5.60274L238.548 5.59908Z" fill="white"/>
<path d="M230.436 29.0566C230.196 29.225 230.061 29.3091 229.937 29.4043C227.114 31.5671 222.995 30.8864 220.798 29.02C218.11 26.7328 218.416 22.3377 221.396 20.1896C222.743 19.2198 224.266 18.7734 225.905 18.6782C227.599 18.5758 229.238 18.7953 230.742 19.6334C232.906 20.8373 234.159 22.7293 234.603 25.119C235.233 28.5041 234.749 31.7427 232.869 34.6594C231.15 37.3272 228.622 38.4287 225.482 38.125C223.84 37.9639 222.295 37.5065 221.017 36.4013C219.928 35.4572 219.651 33.9641 220.317 32.793C221.246 31.1572 223.435 31.5524 224.2 32.4746C224.936 33.3602 224.637 34.7179 223.599 35.2559C223.461 35.3254 223.344 35.4352 223.22 35.5267C223.352 35.6292 223.472 35.7682 223.617 35.8268C224.55 36.2074 225.497 36.4526 226.528 36.2879C227.781 36.0866 228.713 35.4535 229.325 34.3556C230.221 32.7528 230.334 30.9816 230.432 29.0603L230.436 29.0566ZM230.341 24.3724C230.279 24.0394 230.236 23.5454 230.101 23.077C229.675 21.6022 228.509 20.7495 226.947 20.7276C225.406 20.7056 224.175 21.5473 223.77 23.0331C223.588 23.7064 223.537 24.4493 223.588 25.1483C223.81 28.1637 226.644 28.9286 228.549 27.9551C229.937 27.2452 230.25 25.9424 230.345 24.3724H230.341Z" fill="white"/>
<path d="M238.399 23.0806C238.69 23.0587 238.898 23.055 239.098 23.0221C240.333 22.8428 241.4 23.5088 241.633 24.6176C241.884 25.818 241.24 26.9232 240.074 27.2928C238.147 27.9002 236.526 26.839 236.315 24.8372C236.089 22.722 236.927 21.1082 238.664 19.9591C241.178 18.2903 246.026 18.089 248.801 20.1274C251.34 21.9938 251.704 24.7896 250.579 27.2086C250.003 28.4382 248.962 29.225 247.727 29.6605C246.146 30.2167 244.503 30.5973 242.912 31.1206C241.928 31.4427 240.952 31.8233 240.034 32.299C239.182 32.7418 238.617 33.4993 238.326 34.513C238.439 34.4874 238.501 34.4947 238.537 34.4654C239.564 33.6494 240.722 33.6567 241.935 33.8616C243.706 34.1617 245.483 34.4288 247.264 34.6777C248.601 34.8643 249.399 34.3154 249.741 32.998C249.858 32.5552 249.909 32.0904 249.956 31.633C249.989 31.3439 250.084 31.2085 250.397 31.2268C250.794 31.2524 251.194 31.2341 251.679 31.2341C251.642 31.944 251.675 32.621 251.559 33.2688C251.406 34.1434 251.249 35.0436 250.899 35.8524C250.196 37.4882 248.783 38.114 247.086 38.1872C245.49 38.2567 244.059 37.6895 242.631 37.06C241.655 36.6319 240.657 36.2257 239.63 35.9439C238.566 35.6511 237.892 36.1452 237.619 37.232C237.502 37.6907 237.211 37.92 236.745 37.92C236.479 37.92 236.213 37.92 235.918 37.92C235.725 35.4096 236.151 33.159 238.151 31.4463C239.346 30.4253 240.748 29.7666 242.139 29.0786C243.272 28.5187 244.434 27.9991 245.388 27.1354C246.55 26.0851 246.871 24.775 246.485 23.3075C246.095 21.8327 245.006 21.0789 243.578 20.7898C242.493 20.5702 241.411 20.6361 240.376 21.0569C239.466 21.4265 238.814 22.0633 238.395 23.0806H238.399Z" fill="white"/>
<path d="M238.125 50.0806C231.43 49.8281 226.254 47.1786 222.463 41.876C221.938 41.1441 222.091 40.7525 222.455 40.4671C222.925 40.0938 223.716 40.2548 224.105 40.811C225.355 42.5896 226.863 44.1083 228.688 45.294C231.183 46.9188 233.907 47.8483 236.89 48.0386C245.159 48.5619 252.622 43.0104 254.48 34.7948C254.647 34.0519 255.194 33.7042 255.809 33.9311C256.29 34.1068 256.509 34.5533 256.381 35.1424C255.645 38.5165 254.112 41.4807 251.755 44.0022C248.867 47.0908 245.323 48.9864 241.181 49.744C240.103 49.9416 238.996 49.9891 238.129 50.0843L238.125 50.0806Z" fill="white"/>
<path d="M285.175 24.7677C284.727 24.1273 284.137 23.6113 283.412 23.227C282.683 22.8428 281.824 22.6415 280.829 22.6232C279.729 22.5976 278.731 22.7732 277.842 23.1538C276.954 23.5344 276.178 24.0651 275.522 24.7421C274.867 25.4191 274.338 26.2169 273.938 27.1317C273.537 28.0466 273.278 29.0274 273.165 30.074L273.111 30.5937C273.023 31.5744 273.111 32.4893 273.377 33.3273C273.643 34.169 274.047 34.8973 274.593 35.5121C275.14 36.1269 275.814 36.6136 276.615 36.9649C277.416 37.3199 278.316 37.5065 279.31 37.5211C279.82 37.5285 280.348 37.4882 280.891 37.3967C281.434 37.3052 281.958 37.1552 282.465 36.9503C282.971 36.7453 283.444 36.4855 283.878 36.1671C284.315 35.8487 284.683 35.4681 284.982 35.0253L283.186 32.5954C282.709 33.0565 282.184 33.4188 281.612 33.686C281.04 33.9531 280.421 34.0739 279.762 34.0592C278.986 34.0336 278.4 33.7811 278.003 33.309C277.606 32.8369 277.413 32.2221 277.42 31.4683L285.932 31.4829L286.198 29.6641C286.311 28.7346 286.286 27.849 286.111 27.0037C285.94 26.1583 285.63 25.4154 285.178 24.7713M282.122 28.2955L282.031 28.6944H277.682C277.806 28.3687 277.948 28.043 278.112 27.7173C278.276 27.3952 278.469 27.1098 278.695 26.8609C278.921 26.6121 279.183 26.4145 279.481 26.2644C279.78 26.1144 280.133 26.0449 280.538 26.0522C280.873 26.0595 281.153 26.1254 281.376 26.2461C281.601 26.3669 281.776 26.5279 281.904 26.7292C282.031 26.9341 282.111 27.1683 282.148 27.4391C282.184 27.7099 282.173 27.9954 282.122 28.2955Z" fill="white"/>
<path d="M294.875 16.8631L295.745 12.4497L290.515 16.8631L286.996 37.2576H291.36L294.875 16.8631Z" fill="white"/>
<path d="M306.953 24.7677C306.505 24.1273 305.915 23.6113 305.19 23.227C304.462 22.8428 303.602 22.6415 302.608 22.6232C301.508 22.5976 300.509 22.7732 299.621 23.1538C298.732 23.5344 297.956 24.0651 297.3 24.7421C296.645 25.4191 296.117 26.2169 295.716 27.1317C295.315 28.0466 295.057 29.0274 294.944 30.074L294.889 30.5937C294.802 31.5744 294.889 32.4893 295.155 33.3273C295.421 34.169 295.825 34.8973 296.372 35.5121C296.918 36.1269 297.592 36.6136 298.393 36.9649C299.195 37.3199 300.094 37.5065 301.089 37.5211C301.599 37.5285 302.127 37.4882 302.669 37.3967C303.212 37.3052 303.737 37.1552 304.243 36.9503C304.749 36.7453 305.219 36.4855 305.656 36.1671C306.093 35.8487 306.461 35.4681 306.76 35.0253L304.964 32.5954C304.487 33.0565 303.963 33.4188 303.391 33.686C302.819 33.9531 302.2 34.0739 301.54 34.0592C300.764 34.0336 300.178 33.7811 299.781 33.309C299.384 32.8369 299.191 32.2221 299.198 31.4683L307.711 31.4829L307.976 29.6641C308.089 28.7346 308.064 27.849 307.889 27.0037C307.718 26.1583 307.408 25.4154 306.957 24.7713M303.901 28.2955L303.81 28.6944H299.46C299.584 28.3687 299.726 28.043 299.89 27.7173C300.054 27.3952 300.247 27.1098 300.473 26.8609C300.699 26.6121 300.961 26.4145 301.26 26.2644C301.558 26.1144 301.912 26.0449 302.316 26.0522C302.651 26.0595 302.932 26.1254 303.154 26.2461C303.38 26.3669 303.555 26.5279 303.682 26.7292C303.81 26.9341 303.89 27.1683 303.926 27.4391C303.963 27.7099 303.952 27.9954 303.901 28.2955Z" fill="white"/>
<path d="M318.427 22.8904L314.843 31.8782L314.103 22.8904H309.638L311.921 37.2577H316.351L323.118 22.8904H318.427Z" fill="white"/>
<path d="M333.711 23.9919C333.241 23.5564 332.676 23.227 332.021 22.9965C331.365 22.7659 330.651 22.6415 329.886 22.6232C329.154 22.6049 328.411 22.6854 327.661 22.8611C326.907 23.0367 326.222 23.3185 325.599 23.6991C324.976 24.0797 324.462 24.5701 324.055 25.1739C323.643 25.7777 323.421 26.4913 323.388 27.3257L327.748 27.3111C327.846 26.8426 328.032 26.4584 328.309 26.162C328.586 25.8656 328.986 25.7228 329.504 25.7301C329.795 25.7375 330.025 25.7997 330.192 25.9168C330.36 26.0302 330.483 26.1803 330.567 26.3632C330.651 26.5462 330.695 26.7512 330.698 26.9817C330.702 27.2123 330.687 27.4465 330.651 27.6843L330.491 28.4931L329.037 28.4675C328.498 28.4675 327.956 28.4968 327.406 28.559C326.856 28.6212 326.32 28.7236 325.807 28.87C325.289 29.0164 324.805 29.2104 324.346 29.4555C323.887 29.7007 323.486 30.0008 323.144 30.3595C322.802 30.7181 322.521 31.1389 322.31 31.6293C322.099 32.116 321.986 32.6796 321.967 33.3164C321.942 33.9275 322.037 34.4911 322.259 35.0034C322.477 35.5157 322.783 35.9585 323.169 36.3318C323.556 36.7051 324.014 36.9942 324.539 37.2028C325.064 37.4114 325.621 37.5175 326.211 37.5285C326.925 37.5468 327.566 37.4187 328.141 37.1515C328.713 36.8807 329.238 36.4855 329.715 35.9622C329.715 36.1927 329.726 36.4123 329.748 36.6209C329.77 36.8295 329.821 37.0454 329.901 37.265H334.13L334.144 37.0125C334.031 36.7563 333.955 36.4855 333.918 36.2037C333.882 35.9219 333.871 35.6365 333.886 35.3474C333.9 35.0583 333.926 34.7728 333.966 34.4837C334.006 34.1946 334.046 33.9202 334.09 33.653L335.029 27.7575C335.109 26.9415 335.029 26.2205 334.785 25.5947C334.541 24.9653 334.184 24.4347 333.714 24.0029M329.751 33.1809C329.46 33.5359 329.118 33.825 328.721 34.0519C328.323 34.2788 327.886 34.3813 327.413 34.363C327.041 34.3447 326.768 34.2203 326.586 33.986C326.404 33.7518 326.338 33.4518 326.382 33.0895C326.426 32.7345 326.528 32.4198 326.684 32.1453C326.845 31.8708 327.045 31.6403 327.285 31.4537C327.526 31.267 327.799 31.1243 328.105 31.0218C328.407 30.9194 328.728 30.8645 329.063 30.8571L330.185 30.8718L329.748 33.1809H329.751Z" fill="white"/>
<path d="M344.091 19.3187H339.742L339.123 22.8904H337.353L336.825 25.9973H338.595L337.433 33.1261C337.371 33.7994 337.411 34.4032 337.553 34.9375C337.695 35.4718 337.928 35.9293 338.253 36.3062C338.577 36.6831 338.996 36.9722 339.502 37.1772C340.008 37.3821 340.602 37.4882 341.279 37.4955C341.676 37.5029 342.07 37.4809 342.463 37.4297C342.857 37.3748 343.239 37.287 343.618 37.1625L343.935 33.9238C343.742 33.9421 343.552 33.9604 343.367 33.9787C343.181 33.997 342.991 34.0007 342.798 33.9934C342.321 33.9751 342.026 33.8507 341.906 33.6201C341.786 33.3896 341.757 33.0492 341.819 32.5991L342.929 26.001H345.217L345.76 22.894H343.472L344.095 19.3223L344.091 19.3187Z" fill="white"/>
<path d="M358.847 27C358.676 26.1546 358.366 25.4118 357.914 24.7677C357.466 24.1273 356.876 23.6113 356.151 23.227C355.423 22.8428 354.563 22.6415 353.569 22.6232C352.469 22.5976 351.471 22.7732 350.582 23.1538C349.693 23.5344 348.918 24.0651 348.262 24.7421C347.606 25.4191 347.078 26.2169 346.677 27.1317C346.277 28.0466 346.018 29.0274 345.905 30.074L345.851 30.5937C345.763 31.5744 345.851 32.4893 346.116 33.3273C346.382 34.169 346.787 34.8973 347.333 35.5121C347.879 36.1269 348.553 36.6136 349.355 36.9649C350.156 37.3199 351.056 37.5065 352.05 37.5211C352.56 37.5285 353.088 37.4882 353.631 37.3967C354.174 37.3052 354.698 37.1552 355.204 36.9503C355.711 36.7453 356.181 36.4855 356.618 36.1671C357.055 35.8487 357.423 35.4681 357.721 35.0253L355.926 32.5954C355.448 33.0565 354.924 33.4188 354.352 33.686C353.78 33.9531 353.161 34.0739 352.502 34.0592C351.726 34.0336 351.139 33.7811 350.742 33.309C350.345 32.8369 350.152 32.2221 350.16 31.4683L358.672 31.4829L358.938 29.6641C359.051 28.7346 359.025 27.849 358.851 27.0037M354.862 28.2955L354.771 28.6944H350.422C350.546 28.3687 350.688 28.043 350.852 27.7173C351.016 27.3952 351.209 27.1098 351.434 26.8609C351.66 26.6121 351.923 26.4145 352.221 26.2644C352.52 26.1144 352.873 26.0449 353.278 26.0522C353.613 26.0595 353.893 26.1254 354.115 26.2461C354.341 26.3669 354.516 26.5279 354.643 26.7292C354.771 26.9341 354.851 27.1683 354.888 27.4391C354.924 27.7099 354.913 27.9954 354.862 28.2955Z" fill="white"/>
<path d="M299.97 0L301.58 4.43901L306.112 4.48658L302.622 7.24221L303.766 11.7434L299.97 9.27324L296.171 11.7434L297.1 7.47642L293.826 4.48658L298.379 4.47926L299.97 0Z" fill="white"/>
<path d="M150.291 12.3289L121.086 41.6711" stroke="white" stroke-miterlimit="10" stroke-linecap="round"/>
<path d="M150.291 41.6711L121.086 12.3289" stroke="white" stroke-miterlimit="10" stroke-linecap="round"/>
</g>
<defs>
<clipPath id="clip0_10_3257">
<rect width="359" height="54" fill="white"/>
</clipPath>
</defs>
</svg>
