<svg width="351" height="384" viewBox="0 0 351 384" fill="none" xmlns="http://www.w3.org/2000/svg">
<g clip-path="url(#clip0_3_3160)">
<path d="M309.665 166.974L265.833 197.725L305.778 233.924L283.045 280.96L222.534 263.685L232.949 325.546L183.607 342.703L153.747 291.51L116.656 338.816L69.6456 316.031L76.1762 261.068L25.0595 265.936L7.90246 216.594L59.0285 187.424L11.7897 149.643L34.5361 102.646L94.236 120.361L84.6316 58.0596L133.974 40.9025L164.642 97.1925L200.924 44.7897L247.922 67.5361L232.943 125.638L292.508 117.632L309.665 166.974Z" fill="#FF4E00"/>
<path d="M84.3 203.349L82.9507 200.28L79.8817 201.629L78.5324 198.56L84.6704 195.861L86.0197 198.93L95.2266 194.882L92.528 188.744L80.2521 194.142L78.9028 191.073L75.8338 192.422L73.1351 186.284L76.2041 184.935L74.8548 181.866L90.1997 175.119L91.549 178.188L94.618 176.839L95.9673 179.908L89.8293 182.607L88.48 179.538L79.2731 183.585L81.9717 189.723L94.2476 184.326L95.5969 187.395L98.6659 186.046L101.365 192.184L98.2956 193.533L99.6449 196.602L84.3 203.349ZM108.852 192.554L107.502 189.485L113.64 186.786L106.894 171.442L100.756 174.14L99.4066 171.071L117.82 162.975L119.17 166.044L113.032 168.743L119.778 184.088L125.916 181.389L127.266 184.458L108.852 192.554ZM136.473 180.41L135.123 177.341L132.054 178.691L130.705 175.622L127.636 176.971L123.588 167.764L126.657 166.415L125.308 163.346L128.377 161.996L127.027 158.927L142.372 152.181L143.722 155.25L131.446 160.647L132.795 163.716L129.726 165.065L133.774 174.272L136.843 172.923L138.192 175.992L144.33 173.293L141.632 167.155L138.563 168.505L137.213 165.436L146.42 161.388L151.817 173.664L136.473 180.41ZM154.886 172.314L145.441 150.831L151.579 148.133L152.928 151.202L155.997 149.853L157.347 152.921L160.416 151.572L161.765 154.641L164.834 153.292L160.786 144.085L166.924 141.386L176.369 162.869L170.231 165.568L167.533 159.43L164.464 160.779L163.114 157.71L160.045 159.059L158.696 155.99L155.627 157.34L161.024 169.616L154.886 172.314ZM182.507 160.17L181.158 157.101L178.089 158.451L169.993 140.037L176.131 137.338L184.227 155.752L193.434 151.704L185.338 133.29L191.476 130.592L199.572 149.006L196.503 150.355L197.852 153.424L182.507 160.17ZM203.99 150.725L194.545 129.242L212.959 121.146L214.308 124.215L217.377 122.866L221.425 132.073L218.356 133.422L219.705 136.491L207.429 141.889L210.128 148.027L203.99 150.725ZM206.08 138.82L215.287 134.772L211.239 125.565L202.032 129.613L206.08 138.82Z" fill="white"/>
<path d="M103.057 254.481L83.8037 210.69L96.3153 205.189L99.0658 211.445L105.322 208.694L108.072 214.95L114.328 212.2L117.078 218.455L123.334 215.705L115.083 196.938L127.594 191.437L146.848 235.227L134.336 240.728L128.835 228.217L122.579 230.967L119.829 224.711L113.573 227.462L110.823 221.206L104.567 223.956L115.569 248.98L103.057 254.481ZM159.359 229.726L156.609 223.471L150.353 226.221L136.601 194.942L142.856 192.192L140.106 185.936L171.385 172.183L174.135 178.439L180.391 175.689L194.144 206.968L187.888 209.718L190.638 215.974L159.359 229.726ZM162.865 220.72L181.632 212.469L167.88 181.19L149.112 189.441L162.865 220.72ZM209.406 207.723L206.655 201.467L200.399 204.217L183.897 166.683L196.408 161.182L207.41 186.205L213.666 183.454L202.664 158.431L208.92 155.681L219.922 180.704L226.177 177.953L215.176 152.93L227.687 147.429L244.19 184.964L237.934 187.715L240.685 193.97L234.429 196.721L231.678 190.465L225.423 193.216L222.672 186.96L216.416 189.71L219.167 195.966L212.911 198.716L215.661 204.972L209.406 207.723Z" fill="white"/>
</g>
<defs>
<clipPath id="clip0_3_3160">
<rect width="301.32" height="301.36" fill="white" transform="translate(-33 98.962) rotate(-19.1734)"/>
</clipPath>
</defs>
</svg>
